ffmpeg started on 2026-01-13 at 11:01:08
Report written to "D:\Convert\FFMetrics\reports\psnr_report-6.txt"
Log level: 32
Command line:
ffmpeg -hide_banner -nostdin -r 24000/1001 -i "F:\\Convert\\files\\[DC] Make Heroine ga Oosugiru - 07_Telegram_HEVC(126).mkv" -r 24000/1001 -i "F:\\Convert\\files\\[DC] Make Heroine ga Oosugiru - 07_Telegram.mp4" -lavfi "[0:v]settb=AVTB,setpts=PTS-STARTPTS,format=pix_fmts=yuv420p10le,fps=24000/1001,scale=1920:1080:flags=lanczos:param0=3:out_range=limited:out_color_matrix=bt709:out_chroma_loc=left,setsar=1/1,setdar=(1920/1080)*(1/1),colorspace=format=yuv420p10:range=tv:primaries=bt709:trc=bt709:space=bt709:fast=0[main];[1:v]settb=AVTB,setpts=PTS-STARTPTS,format=pix_fmts=yuv420p,fps=24000/1001,scale=1920:1080:flags=lanczos:param0=3:out_range=limited:out_color_matrix=bt709:out_chroma_loc=left,setsar=1.000,setdar=1.778,colorspace=format=yuv420p:range=tv:primaries=bt709:trc=bt709:space=bt709:fast=0[ref];[main][ref]psnr=eof_action=endall:stats_file='D\\:/Convert/FFMetrics/logs/psnr_logfile-6.txt'" -f null -
Input #0, matroska,webm, from 'F:\Convert\files\[DC] Make Heroine ga Oosugiru - 07_Telegram_HEVC(126).mkv':
  Metadata:
    COMPATIBLE_BRANDS: isomiso2avc1mp41
    MAJOR_BRAND     : isom
    MINOR_VERSION   : 512
    ENCODER         : Lavf61.7.100
  Duration: 00:24:06.79, start: -0.021000, bitrate: 987 kb/s
  Stream #0:0: Video: hevc (Main 10), yuv420p10le(tv, bt709, progressive), 1920x1080 [SAR 1:1 DAR 16:9], 23.98 fps, 23.98 tbr, 1k tbn (default)
      Metadata:
        HANDLER_NAME    : VideoHandler
        VENDOR_ID       : [0][0][0][0]
        ENCODER         : Lavc61.19.100 libx265
        BPS             : 790802
        DURATION        : 00:24:06.569708333
        NUMBER_OF_FRAMES: 34683
        NUMBER_OF_BYTES : 142993841
        _STATISTICS_WRITING_APP: mkvpropedit v94.0 ('Initiate') 64-bit
        _STATISTICS_WRITING_DATE_UTC: 2026-01-12 18:14:27
        _STATISTICS_TAGS: BPS DURATION NUMBER_OF_FRAMES NUMBER_OF_BYTES
  Stream #0:1: Audio: aac (LC), 48000 Hz, stereo, fltp (default)
      Metadata:
        HANDLER_NAME    : SoundHandler
        VENDOR_ID       : [0][0][0][0]
        ENCODER         : Lavc61.19.100 aac
        BPS             : 193194
        DURATION        : 00:24:06.784000000
        NUMBER_OF_FRAMES: 67819
        NUMBER_OF_BYTES : 34938755
        _STATISTICS_WRITING_APP: mkvpropedit v94.0 ('Initiate') 64-bit
        _STATISTICS_WRITING_DATE_UTC: 2026-01-12 18:14:27
        _STATISTICS_TAGS: BPS DURATION NUMBER_OF_FRAMES NUMBER_OF_BYTES
Input #1, mov,mp4,m4a,3gp,3g2,mj2, from 'F:\Convert\files\[DC] Make Heroine ga Oosugiru - 07_Telegram.mp4':
  Metadata:
    major_brand     : isom
    minor_version   : 512
    compatible_brands: isomiso2avc1mp41
    encoder         : Lavf60.16.100
  Duration: 00:24:06.74, start: 0.000000, bitrate: 3764 kb/s
  Stream #1:0[0x1](und): Video: h264 (High) (avc1 / 0x31637661), yuv420p(tv, bt709, progressive), 1920x1080 [SAR 1:1 DAR 16:9], 3616 kb/s, 23.98 fps, 23.98 tbr, 24k tbn (default)
      Metadata:
        handler_name    : VideoHandler
        vendor_id       : [0][0][0][0]
        encoder         : Lavc60.31.102 h264_qsv
  Stream #1:1[0x2](und): Audio: aac (HE-AACv2) (mp4a / 0x6134706D), 48000 Hz, stereo, fltp, 144 kb/s (default)
      Metadata:
        handler_name    : SoundHandler
        vendor_id       : [0][0][0][0]
Stream mapping:
  Stream #0:0 (hevc) -> settb:default
  Stream #1:0 (h264) -> settb:default
  psnr:default -> Stream #0:0 (wrapped_avframe)
  Stream #0:1 -> #0:1 (aac (native) -> pcm_s16le (native))
Output #0, null, to 'pipe:':
  Metadata:
    COMPATIBLE_BRANDS: isomiso2avc1mp41
    MAJOR_BRAND     : isom
    MINOR_VERSION   : 512
    encoder         : Lavf61.7.100
  Stream #0:0: Video: wrapped_avframe, yuv420p10le(tv, bt709, progressive), 1920x1080 [SAR 1:1 DAR 16:9], q=2-31, 200 kb/s, 23.98 fps, 23.98 tbn
      Metadata:
        encoder         : Lavc61.19.100 wrapped_avframe
  Stream #0:1: Audio: pcm_s16le, 48000 Hz, stereo, s16, 1536 kb/s (default)
      Metadata:
        HANDLER_NAME    : SoundHandler
        VENDOR_ID       : [0][0][0][0]
        _STATISTICS_TAGS: BPS DURATION NUMBER_OF_FRAMES NUMBER_OF_BYTES
        BPS             : 193194
        DURATION        : 00:24:06.784000000
        NUMBER_OF_FRAMES: 67819
        NUMBER_OF_BYTES : 34938755
        _STATISTICS_WRITING_APP: mkvpropedit v94.0 ('Initiate') 64-bit
        _STATISTICS_WRITING_DATE_UTC: 2026-01-12 18:14:27
        encoder         : Lavc61.19.100 pcm_s16le
frame=  127 fps=0.0 q=-0.0 size=N/A time=00:00:05.29 bitrate=N/A speed=10.3x    frame=  304 fps=296 q=-0.0 size=N/A time=00:00:12.67 bitrate=N/A speed=12.4x    frame=  509 fps=328 q=-0.0 size=N/A time=00:00:21.22 bitrate=N/A speed=13.7x    frame=  701 fps=337 q=-0.0 size=N/A time=00:00:29.23 bitrate=N/A speed=14.1x    frame=  884 fps=341 q=-0.0 size=N/A time=00:00:36.87 bitrate=N/A speed=14.2x    frame= 1014 fps=327 q=-0.0 size=N/A time=00:00:42.29 bitrate=N/A speed=13.6x    frame= 1177 fps=324 q=-0.0 size=N/A time=00:00:49.09 bitrate=N/A speed=13.5x    frame= 1324 fps=320 q=-0.0 size=N/A time=00:00:55.22 bitrate=N/A speed=13.4x    frame= 1490 fps=320 q=-0.0 size=N/A time=00:01:02.14 bitrate=N/A speed=13.3x    frame= 1628 fps=315 q=-0.0 size=N/A time=00:01:07.90 bitrate=N/A speed=13.1x    frame= 1777 fps=313 q=-0.0 size=N/A time=00:01:14.11 bitrate=N/A speed=  13x    frame= 1928 fps=311 q=-0.0 size=N/A time=00:01:20.41 bitrate=N/A speed=  13x    frame= 2060 fps=307 q=-0.0 size=N/A time=00:01:25.91 bitrate=N/A speed=12.8x    frame= 2165 fps=299 q=-0.0 size=N/A time=00:01:30.29 bitrate=N/A speed=12.5x    frame= 2323 fps=300 q=-0.0 size=N/A time=00:01:36.88 bitrate=N/A speed=12.5x    frame= 2454 fps=297 q=-0.0 size=N/A time=00:01:42.35 bitrate=N/A speed=12.4x    frame= 2590 fps=295 q=-0.0 size=N/A time=00:01:48.02 bitrate=N/A speed=12.3x    frame= 2764 fps=297 q=-0.0 size=N/A time=00:01:55.28 bitrate=N/A speed=12.4x    frame= 2934 fps=299 q=-0.0 size=N/A time=00:02:02.37 bitrate=N/A speed=12.5x    frame= 3117 fps=302 q=-0.0 size=N/A time=00:02:10.00 bitrate=N/A speed=12.6x    frame= 3300 fps=305 q=-0.0 size=N/A time=00:02:17.63 bitrate=N/A speed=12.7x    frame= 3493 fps=307 q=-0.0 size=N/A time=00:02:25.68 bitrate=N/A speed=12.8x    frame= 3687 fps=310 q=-0.0 size=N/A time=00:02:33.77 bitrate=N/A speed=12.9x    frame= 3879 fps=313 q=-0.0 size=N/A time=00:02:41.78 bitrate=N/A speed=13.1x    frame= 4061 fps=315 q=-0.0 size=N/A time=00:02:49.37 bitrate=N/A speed=13.1x    frame= 4264 fps=318 q=-0.0 size=N/A time=00:02:57.84 bitrate=N/A speed=13.2x    frame= 4414 fps=317 q=-0.0 size=N/A time=00:03:04.10 bitrate=N/A speed=13.2x    frame= 4597 fps=318 q=-0.0 size=N/A time=00:03:11.73 bitrate=N/A speed=13.3x    frame= 4783 fps=320 q=-0.0 size=N/A time=00:03:19.49 bitrate=N/A speed=13.3x    frame= 4983 fps=322 q=-0.0 size=N/A time=00:03:27.83 bitrate=N/A speed=13.4x    frame= 5172 fps=323 q=-0.0 size=N/A time=00:03:35.71 bitrate=N/A speed=13.5x    frame= 5364 fps=325 q=-0.0 size=N/A time=00:03:43.72 bitrate=N/A speed=13.5x    frame= 5557 fps=326 q=-0.0 size=N/A time=00:03:51.77 bitrate=N/A speed=13.6x    frame= 5744 fps=327 q=-0.0 size=N/A time=00:03:59.57 bitrate=N/A speed=13.7x    frame= 5945 fps=329 q=-0.0 size=N/A time=00:04:07.95 bitrate=N/A speed=13.7x    frame= 6131 fps=330 q=-0.0 size=N/A time=00:04:15.71 bitrate=N/A speed=13.8x    frame= 6319 fps=331 q=-0.0 size=N/A time=00:04:23.55 bitrate=N/A speed=13.8x    frame= 6512 fps=332 q=-0.0 size=N/A time=00:04:31.60 bitrate=N/A speed=13.9x    frame= 6706 fps=333 q=-0.0 size=N/A time=00:04:39.69 bitrate=N/A speed=13.9x    frame= 6888 fps=334 q=-0.0 size=N/A time=00:04:47.28 bitrate=N/A speed=13.9x    frame= 7044 fps=333 q=-0.0 size=N/A time=00:04:53.79 bitrate=N/A speed=13.9x    frame= 7224 fps=333 q=-0.0 size=N/A time=00:05:01.30 bitrate=N/A speed=13.9x    frame= 7421 fps=334 q=-0.0 size=N/A time=00:05:09.51 bitrate=N/A speed=13.9x    frame= 7603 fps=335 q=-0.0 size=N/A time=00:05:17.10 bitrate=N/A speed=  14x    frame= 7782 fps=335 q=-0.0 size=N/A time=00:05:24.57 bitrate=N/A speed=  14x    frame= 7954 fps=335 q=-0.0 size=N/A time=00:05:31.74 bitrate=N/A speed=  14x    frame= 8137 fps=336 q=-0.0 size=N/A time=00:05:39.38 bitrate=N/A speed=  14x    frame= 8328 fps=336 q=-0.0 size=N/A time=00:05:47.34 bitrate=N/A speed=  14x    frame= 8515 fps=337 q=-0.0 size=N/A time=00:05:55.14 bitrate=N/A speed=14.1x    frame= 8692 fps=337 q=-0.0 size=N/A time=00:06:02.52 bitrate=N/A speed=14.1x    frame= 8879 fps=337 q=-0.0 size=N/A time=00:06:10.32 bitrate=N/A speed=14.1x    frame= 9062 fps=338 q=-0.0 size=N/A time=00:06:17.96 bitrate=N/A speed=14.1x    frame= 9241 fps=338 q=-0.0 size=N/A time=00:06:25.42 bitrate=N/A speed=14.1x    frame= 9411 fps=338 q=-0.0 size=N/A time=00:06:32.51 bitrate=N/A speed=14.1x    frame= 9579 fps=338 q=-0.0 size=N/A time=00:06:39.52 bitrate=N/A speed=14.1x    frame= 9767 fps=338 q=-0.0 size=N/A time=00:06:47.36 bitrate=N/A speed=14.1x    frame= 9951 fps=338 q=-0.0 size=N/A time=00:06:55.03 bitrate=N/A speed=14.1x    frame=10137 fps=339 q=-0.0 size=N/A time=00:07:02.79 bitrate=N/A speed=14.1x    frame=10317 fps=339 q=-0.0 size=N/A time=00:07:10.30 bitrate=N/A speed=14.1x    frame=10489 fps=339 q=-0.0 size=N/A time=00:07:17.47 bitrate=N/A speed=14.1x    frame=10670 fps=339 q=-0.0 size=N/A time=00:07:25.02 bitrate=N/A speed=14.1x    frame=10810 fps=338 q=-0.0 size=N/A time=00:07:30.86 bitrate=N/A speed=14.1x    frame=10947 fps=337 q=-0.0 size=N/A time=00:07:36.58 bitrate=N/A speed=  14x    frame=11132 fps=337 q=-0.0 size=N/A time=00:07:44.29 bitrate=N/A speed=14.1x    frame=11311 fps=337 q=-0.0 size=N/A time=00:07:51.76 bitrate=N/A speed=14.1x    frame=11499 fps=338 q=-0.0 size=N/A time=00:07:59.60 bitrate=N/A speed=14.1x    frame=11687 fps=338 q=-0.0 size=N/A time=00:08:07.44 bitrate=N/A speed=14.1x    frame=11863 fps=338 q=-0.0 size=N/A time=00:08:14.82 bitrate=N/A speed=14.1x    frame=12050 fps=338 q=-0.0 size=N/A time=00:08:22.58 bitrate=N/A speed=14.1x    frame=12237 fps=339 q=-0.0 size=N/A time=00:08:30.38 bitrate=N/A speed=14.1x    frame=12436 fps=339 q=-0.0 size=N/A time=00:08:38.68 bitrate=N/A speed=14.2x    frame=12614 fps=339 q=-0.0 size=N/A time=00:08:46.10 bitrate=N/A speed=14.2x    frame=12803 fps=340 q=-0.0 size=N/A time=00:08:53.99 bitrate=N/A speed=14.2x    frame=12982 fps=340 q=-0.0 size=N/A time=00:09:01.45 bitrate=N/A speed=14.2x    frame=13166 fps=340 q=-0.0 size=N/A time=00:09:09.13 bitrate=N/A speed=14.2x    frame=13301 fps=339 q=-0.0 size=N/A time=00:09:14.76 bitrate=N/A speed=14.1x    frame=13486 fps=339 q=-0.0 size=N/A time=00:09:22.47 bitrate=N/A speed=14.2x    frame=13678 fps=340 q=-0.0 size=N/A time=00:09:30.48 bitrate=N/A speed=14.2x    frame=13856 fps=340 q=-0.0 size=N/A time=00:09:37.91 bitrate=N/A speed=14.2x    frame=14033 fps=340 q=-0.0 size=N/A time=00:09:45.29 bitrate=N/A speed=14.2x    frame=14204 fps=340 q=-0.0 size=N/A time=00:09:52.42 bitrate=N/A speed=14.2x    frame=14391 fps=340 q=-0.0 size=N/A time=00:10:00.22 bitrate=N/A speed=14.2x    frame=14578 fps=340 q=-0.0 size=N/A time=00:10:08.02 bitrate=N/A speed=14.2x    frame=14756 fps=340 q=-0.0 size=N/A time=00:10:15.44 bitrate=N/A speed=14.2x    frame=14944 fps=341 q=-0.0 size=N/A time=00:10:23.28 bitrate=N/A speed=14.2x    frame=15110 fps=340 q=-0.0 size=N/A time=00:10:30.21 bitrate=N/A speed=14.2x    frame=15275 fps=340 q=-0.0 size=N/A time=00:10:37.09 bitrate=N/A speed=14.2x    frame=15448 fps=340 q=-0.0 size=N/A time=00:10:44.31 bitrate=N/A speed=14.2x    frame=15593 fps=340 q=-0.0 size=N/A time=00:10:50.35 bitrate=N/A speed=14.2x    frame=15761 fps=339 q=-0.0 size=N/A time=00:10:57.36 bitrate=N/A speed=14.2x    frame=15933 fps=339 q=-0.0 size=N/A time=00:11:04.53 bitrate=N/A speed=14.2x    frame=16119 fps=340 q=-0.0 size=N/A time=00:11:12.29 bitrate=N/A speed=14.2x    frame=16294 fps=340 q=-0.0 size=N/A time=00:11:19.59 bitrate=N/A speed=14.2x    frame=16473 fps=340 q=-0.0 size=N/A time=00:11:27.06 bitrate=N/A speed=14.2x    frame=16657 fps=340 q=-0.0 size=N/A time=00:11:34.73 bitrate=N/A speed=14.2x    frame=16845 fps=340 q=-0.0 size=N/A time=00:11:42.57 bitrate=N/A speed=14.2x    frame=17032 fps=340 q=-0.0 size=N/A time=00:11:50.37 bitrate=N/A speed=14.2x    frame=17229 fps=341 q=-0.0 size=N/A time=00:11:58.59 bitrate=N/A speed=14.2x    frame=17419 fps=341 q=-0.0 size=N/A time=00:12:06.51 bitrate=N/A speed=14.2x    frame=17603 fps=341 q=-0.0 size=N/A time=00:12:14.19 bitrate=N/A speed=14.2x    frame=17789 fps=341 q=-0.0 size=N/A time=00:12:21.94 bitrate=N/A speed=14.2x    frame=17979 fps=342 q=-0.0 size=N/A time=00:12:29.87 bitrate=N/A speed=14.3x    frame=18102 fps=341 q=-0.0 size=N/A time=00:12:35.00 bitrate=N/A speed=14.2x    frame=18285 fps=341 q=-0.0 size=N/A time=00:12:42.63 bitrate=N/A speed=14.2x    frame=18465 fps=341 q=-0.0 size=N/A time=00:12:50.14 bitrate=N/A speed=14.2x    frame=18650 fps=341 q=-0.0 size=N/A time=00:12:57.86 bitrate=N/A speed=14.2x    frame=18840 fps=341 q=-0.0 size=N/A time=00:13:05.78 bitrate=N/A speed=14.2x    frame=19031 fps=342 q=-0.0 size=N/A time=00:13:13.75 bitrate=N/A speed=14.2x    frame=19214 fps=342 q=-0.0 size=N/A time=00:13:21.38 bitrate=N/A speed=14.3x    frame=19402 fps=342 q=-0.0 size=N/A time=00:13:29.22 bitrate=N/A speed=14.3x    frame=19588 fps=342 q=-0.0 size=N/A time=00:13:36.98 bitrate=N/A speed=14.3x    frame=19763 fps=342 q=-0.0 size=N/A time=00:13:44.28 bitrate=N/A speed=14.3x    frame=19930 fps=342 q=-0.0 size=N/A time=00:13:51.24 bitrate=N/A speed=14.3x    frame=20094 fps=342 q=-0.0 size=N/A time=00:13:58.08 bitrate=N/A speed=14.3x    frame=20267 fps=342 q=-0.0 size=N/A time=00:14:05.30 bitrate=N/A speed=14.2x    frame=20428 fps=341 q=-0.0 size=N/A time=00:14:12.01 bitrate=N/A speed=14.2x    frame=20540 fps=340 q=-0.0 size=N/A time=00:14:16.68 bitrate=N/A speed=14.2x    frame=20708 fps=340 q=-0.0 size=N/A time=00:14:23.69 bitrate=N/A speed=14.2x    frame=20894 fps=340 q=-0.0 size=N/A time=00:14:31.45 bitrate=N/A speed=14.2x    frame=21073 fps=340 q=-0.0 size=N/A time=00:14:38.91 bitrate=N/A speed=14.2x    frame=21253 fps=341 q=-0.0 size=N/A time=00:14:46.42 bitrate=N/A speed=14.2x    frame=21436 fps=341 q=-0.0 size=N/A time=00:14:54.05 bitrate=N/A speed=14.2x    frame=21617 fps=341 q=-0.0 size=N/A time=00:15:01.60 bitrate=N/A speed=14.2x    frame=21800 fps=341 q=-0.0 size=N/A time=00:15:09.24 bitrate=N/A speed=14.2x    frame=21991 fps=341 q=-0.0 size=N/A time=00:15:17.20 bitrate=N/A speed=14.2x    frame=22152 fps=341 q=-0.0 size=N/A time=00:15:23.92 bitrate=N/A speed=14.2x    frame=22328 fps=341 q=-0.0 size=N/A time=00:15:31.26 bitrate=N/A speed=14.2x    frame=22510 fps=341 q=-0.0 size=N/A time=00:15:38.85 bitrate=N/A speed=14.2x    frame=22697 fps=341 q=-0.0 size=N/A time=00:15:46.65 bitrate=N/A speed=14.2x    frame=22829 fps=340 q=-0.0 size=N/A time=00:15:52.15 bitrate=N/A speed=14.2x    frame=23023 fps=341 q=-0.0 size=N/A time=00:16:00.25 bitrate=N/A speed=14.2x    frame=23205 fps=341 q=-0.0 size=N/A time=00:16:07.84 bitrate=N/A speed=14.2x    frame=23394 fps=341 q=-0.0 size=N/A time=00:16:15.72 bitrate=N/A speed=14.2x    frame=23589 fps=341 q=-0.0 size=N/A time=00:16:23.85 bitrate=N/A speed=14.2x    frame=23774 fps=341 q=-0.0 size=N/A time=00:16:31.57 bitrate=N/A speed=14.2x    frame=23959 fps=341 q=-0.0 size=N/A time=00:16:39.28 bitrate=N/A speed=14.2x    frame=24144 fps=342 q=-0.0 size=N/A time=00:16:47.00 bitrate=N/A speed=14.2x    frame=24321 fps=342 q=-0.0 size=N/A time=00:16:54.38 bitrate=N/A speed=14.3x    frame=24509 fps=342 q=-0.0 size=N/A time=00:17:02.22 bitrate=N/A speed=14.3x    frame=24679 fps=342 q=-0.0 size=N/A time=00:17:09.31 bitrate=N/A speed=14.3x    frame=24852 fps=342 q=-0.0 size=N/A time=00:17:16.53 bitrate=N/A speed=14.3x    frame=25025 fps=342 q=-0.0 size=N/A time=00:17:23.75 bitrate=N/A speed=14.3x    frame=25201 fps=342 q=-0.0 size=N/A time=00:17:31.09 bitrate=N/A speed=14.2x    frame=25343 fps=341 q=-0.0 size=N/A time=00:17:37.01 bitrate=N/A speed=14.2x    frame=25519 fps=341 q=-0.0 size=N/A time=00:17:44.35 bitrate=N/A speed=14.2x    frame=25702 fps=341 q=-0.0 size=N/A time=00:17:51.98 bitrate=N/A speed=14.2x    frame=25893 fps=341 q=-0.0 size=N/A time=00:17:59.95 bitrate=N/A speed=14.2x    frame=26086 fps=342 q=-0.0 size=N/A time=00:18:08.00 bitrate=N/A speed=14.3x    frame=26275 fps=342 q=-0.0 size=N/A time=00:18:15.88 bitrate=N/A speed=14.3x    frame=26462 fps=342 q=-0.0 size=N/A time=00:18:23.68 bitrate=N/A speed=14.3x    frame=26652 fps=342 q=-0.0 size=N/A time=00:18:31.61 bitrate=N/A speed=14.3x    frame=26841 fps=342 q=-0.0 size=N/A time=00:18:39.49 bitrate=N/A speed=14.3x    frame=27018 fps=342 q=-0.0 size=N/A time=00:18:46.87 bitrate=N/A speed=14.3x    frame=27196 fps=342 q=-0.0 size=N/A time=00:18:54.29 bitrate=N/A speed=14.3x    frame=27382 fps=342 q=-0.0 size=N/A time=00:19:02.05 bitrate=N/A speed=14.3x    frame=27565 fps=343 q=-0.0 size=N/A time=00:19:09.69 bitrate=N/A speed=14.3x    frame=27703 fps=342 q=-0.0 size=N/A time=00:19:15.44 bitrate=N/A speed=14.3x    frame=27867 fps=342 q=-0.0 size=N/A time=00:19:22.28 bitrate=N/A speed=14.3x    frame=28045 fps=342 q=-0.0 size=N/A time=00:19:29.71 bitrate=N/A speed=14.3x    frame=28228 fps=342 q=-0.0 size=N/A time=00:19:37.34 bitrate=N/A speed=14.3x    frame=28421 fps=342 q=-0.0 size=N/A time=00:19:45.39 bitrate=N/A speed=14.3x    frame=28608 fps=342 q=-0.0 size=N/A time=00:19:53.19 bitrate=N/A speed=14.3x    frame=28773 fps=342 q=-0.0 size=N/A time=00:20:00.07 bitrate=N/A speed=14.3x    frame=28947 fps=342 q=-0.0 size=N/A time=00:20:07.33 bitrate=N/A speed=14.3x    frame=29108 fps=342 q=-0.0 size=N/A time=00:20:14.04 bitrate=N/A speed=14.3x    frame=29272 fps=342 q=-0.0 size=N/A time=00:20:20.88 bitrate=N/A speed=14.3x    frame=29451 fps=342 q=-0.0 size=N/A time=00:20:28.35 bitrate=N/A speed=14.3x    frame=29616 fps=342 q=-0.0 size=N/A time=00:20:35.23 bitrate=N/A speed=14.3x    frame=29786 fps=342 q=-0.0 size=N/A time=00:20:42.32 bitrate=N/A speed=14.3x    frame=29955 fps=342 q=-0.0 size=N/A time=00:20:49.37 bitrate=N/A speed=14.2x    frame=30069 fps=341 q=-0.0 size=N/A time=00:20:54.12 bitrate=N/A speed=14.2x    frame=30248 fps=341 q=-0.0 size=N/A time=00:21:01.59 bitrate=N/A speed=14.2x    frame=30428 fps=341 q=-0.0 size=N/A time=00:21:09.10 bitrate=N/A speed=14.2x    frame=30612 fps=341 q=-0.0 size=N/A time=00:21:16.77 bitrate=N/A speed=14.2x    frame=30794 fps=341 q=-0.0 size=N/A time=00:21:24.36 bitrate=N/A speed=14.2x    frame=30987 fps=341 q=-0.0 size=N/A time=00:21:32.41 bitrate=N/A speed=14.2x    frame=31175 fps=341 q=-0.0 size=N/A time=00:21:40.25 bitrate=N/A speed=14.2x    frame=31335 fps=341 q=-0.0 size=N/A time=00:21:46.93 bitrate=N/A speed=14.2x    frame=31450 fps=341 q=-0.0 size=N/A time=00:21:51.72 bitrate=N/A speed=14.2x    frame=31626 fps=341 q=-0.0 size=N/A time=00:21:59.06 bitrate=N/A speed=14.2x    frame=31802 fps=341 q=-0.0 size=N/A time=00:22:06.40 bitrate=N/A speed=14.2x    frame=31982 fps=341 q=-0.0 size=N/A time=00:22:13.91 bitrate=N/A speed=14.2x    frame=32172 fps=341 q=-0.0 size=N/A time=00:22:21.84 bitrate=N/A speed=14.2x    frame=32338 fps=341 q=-0.0 size=N/A time=00:22:28.76 bitrate=N/A speed=14.2x    frame=32529 fps=341 q=-0.0 size=N/A time=00:22:36.73 bitrate=N/A speed=14.2x    frame=32682 fps=341 q=-0.0 size=N/A time=00:22:43.11 bitrate=N/A speed=14.2x    frame=32838 fps=340 q=-0.0 size=N/A time=00:22:49.61 bitrate=N/A speed=14.2x    frame=33007 fps=340 q=-0.0 size=N/A time=00:22:56.66 bitrate=N/A speed=14.2x    frame=33183 fps=340 q=-0.0 size=N/A time=00:23:04.00 bitrate=N/A speed=14.2x    frame=33365 fps=340 q=-0.0 size=N/A time=00:23:11.59 bitrate=N/A speed=14.2x    frame=33518 fps=340 q=-0.0 size=N/A time=00:23:17.97 bitrate=N/A speed=14.2x    frame=33639 fps=340 q=-0.0 size=N/A time=00:23:23.02 bitrate=N/A speed=14.2x    frame=33774 fps=339 q=-0.0 size=N/A time=00:23:28.65 bitrate=N/A speed=14.1x    frame=33896 fps=339 q=-0.0 size=N/A time=00:23:33.74 bitrate=N/A speed=14.1x    frame=34059 fps=339 q=-0.0 size=N/A time=00:23:40.54 bitrate=N/A speed=14.1x    frame=34206 fps=338 q=-0.0 size=N/A time=00:23:46.67 bitrate=N/A speed=14.1x    frame=34343 fps=338 q=-0.0 size=N/A time=00:23:52.38 bitrate=N/A speed=14.1x    frame=34468 fps=337 q=-0.0 size=N/A time=00:23:57.60 bitrate=N/A speed=14.1x    frame=34645 fps=337 q=-0.0 size=N/A time=00:24:04.98 bitrate=N/A speed=14.1x    [Parsed_psnr_16 @ 000001b1ff01a180] PSNR y:48.954352 u:50.337887 v:50.386926 average:49.374921 min:37.988147 max:inf
[out#0/null @ 000001b1f74e8a00] video:14903KiB audio:271276KiB subtitle:0KiB other streams:0KiB global headers:0KiB muxing overhead: unknown
frame=34683 fps=337 q=-0.0 Lsize=N/A time=00:24:06.57 bitrate=N/A speed=14.1x    
